# xmcd CD database file
#
# Track frame offsets:
#	150
#	18482
#	36732
#	50105
#	68480
#	81970
#	108850
#
# Disc length: 4440 seconds
#
# Revision: 0
# Processed by: cddbd v1.5.1PL0 Copyright (c) Steve Scherf et al.
# Submitted via: CDex 1.51
#
DISCID=5b115607
DTITLE=NAPSAX - 蒼い空
DYEAR=2003
DGENRE=Ska
TTITLE0=アオイソラ
TTITLE1=THE POWER
TTITLE2=We Are All Here For You
TTITLE3=向日葵の詩
TTITLE4=CHANGE
TTITLE5=Cool Running
TTITLE6=No DATA
EXTD=YEAR: 2003
EXTT0=
EXTT1=
EXTT2=
EXTT3=
EXTT4=
EXTT5=
EXTT6=
PLAYORDER=
